# Blender 3.3.1
# www.blender.org
mtllib robot.mtl
o Robot
v 0.800000 1.113333 1.013333
v -0.400000 0.013333 0.913333
v 0.500000 2.813332 0.513333
v -0.500000 2.813332 0.513333
v 0.400000 0.113333 -0.986667
v -0.400000 0.113333 1.813333
v 0.400000 1.313332 1.813333
v -0.400000 1.313332 1.813333
v 0.400000 1.913332 -0.986667
v -0.400000 1.913332 -0.986667
v 0.400000 2.713332 -0.986667
v 0.300000 0.013333 1.713333
v 0.300000 0.113333 1.713333
v 0.300000 1.313332 1.713333
v -0.300000 1.313332 1.713333
v 0.200000 0.613333 1.213333
v -0.300000 0.313333 0.313333
v 0.800000 1.113333 -0.986667
v -0.800000 1.113333 -0.986667
v 0.800000 2.813333 -0.986667
v 0.500000 2.813332 -0.486667
v -0.500000 2.813332 -0.486667
v 0.300000 0.913333 -1.686666
v -0.300000 0.913333 -1.686666
v 0.300000 1.313332 1.113333
v -0.300000 1.313332 1.113333
v 0.300000 1.913332 -1.686666
v -0.400000 0.113333 -1.786666
v 0.400000 0.113333 1.013333
v 0.400000 1.913332 1.013333
v -0.400000 1.913332 1.013333
v -0.400000 2.713332 1.013333
v 0.800000 2.813333 1.013333
v 0.400000 0.113333 1.813333
v 0.400000 1.313332 1.013333
v 0.300000 1.913332 1.713333
v 0.300000 1.913332 1.113333
v -0.200000 0.013333 1.213333
v 0.400000 0.913333 -1.786666
v 0.300000 1.913332 -1.086666
v 0.400000 0.013333 0.913333
v 0.300000 0.313333 0.313333
v 0.300000 1.713333 0.313333
v -0.300000 0.013333 1.713333
v -0.300000 1.913332 1.713333
v -0.300000 0.013333 1.113333
v -0.300000 0.113333 1.113333
v -0.300000 1.913332 1.113333
v -0.400000 1.313332 1.013333
v -0.800000 1.113333 1.013333
v -0.800000 2.813333 1.013333
v -0.300000 0.913333 -1.086666
v -0.300000 1.913332 -1.086666
v -0.400000 0.113333 -0.986667
v -0.300000 1.113333 0.313333
v -0.400000 0.313333 0.913333
v 0.300000 0.013333 1.113333
v 0.200000 0.013333 1.613334
v 0.200000 0.013333 1.213333
v -0.200000 0.013333 1.613334
v 0.400000 0.113333 -1.786666
v 0.400000 0.013333 0.213333
v -0.400000 0.013333 0.213333
v 0.300000 0.113333 1.113333
v -0.300000 0.113333 1.713333
v -0.400000 0.113333 1.013333
v 0.200000 0.613333 1.613334
v -0.200000 0.613333 1.613334
v -0.200000 0.613333 1.213333
v 0.400000 1.913332 -1.786666
v -0.300000 1.913332 -1.686666
v -0.400000 1.913332 -1.786666
v 0.400000 1.913332 1.813333
v -0.400000 1.913332 1.813333
v 0.400000 0.313333 0.913333
v 0.400000 0.313333 0.213333
v 0.300000 0.313333 0.813333
v -0.300000 0.313333 0.813333
v -0.400000 0.313333 0.213333
v 0.400000 0.913333 -0.986667
v 0.300000 0.913333 -1.086666
v -0.400000 0.913333 -0.986667
v -0.400000 0.913333 -1.786666
v 0.500000 3.813332 0.513333
v 0.500000 3.813332 -0.486667
v -0.500000 3.813332 0.513333
v -0.500000 3.813332 -0.486667
v -0.800000 2.813333 -0.986667
v 0.300000 1.713333 0.813333
v -0.300000 1.713333 0.813333
v -0.300000 1.713333 0.313333
v 0.400000 2.713332 -1.786666
v -0.400000 2.713332 -0.986667
v -0.400000 2.713332 -1.786666
v 0.400000 2.713332 1.813333
v 0.400000 2.713332 1.013333
v -0.400000 2.713332 1.813333
v 0.300000 1.113333 0.313333
v -0.300000 1.113333 0.813333
v 0.300000 1.113333 0.813333
v -0.400000 0.013333 -0.186667
v -0.300000 0.313333 -0.786667
v 0.400000 0.013333 -0.186667
v 0.300000 0.313333 -0.786667
v 0.300000 1.713333 -0.786667
v -0.300000 1.113333 -0.786667
v -0.400000 0.313333 -0.186667
v 0.400000 0.013333 -0.886667
v -0.400000 0.013333 -0.886667
v 0.400000 0.313333 -0.186667
v 0.400000 0.313333 -0.886667
v 0.300000 0.313333 -0.286667
v -0.300000 0.313333 -0.286667
v -0.400000 0.313333 -0.886667
v 0.300000 1.713333 -0.286667
v -0.300000 1.713333 -0.286667
v -0.300000 1.713333 -0.786667
v 0.300000 1.113333 -0.786667
v -0.300000 1.113333 -0.286667
v 0.300000 1.113333 -0.286667
vn 1.0000 -0.0000 -0.0000
vn -0.0000 -0.0000 1.0000
vn -0.0000 -1.0000 -0.0000
vn -0.0000 1.0000 -0.0000
vn -1.0000 -0.0000 -0.0000
vn -0.0000 -0.0000 -1.0000
vt 0.480000 0.170000
vt 0.320000 0.000000
vt 0.370000 0.890000
vt 0.400000 0.860000
vt 0.000000 0.740000
vt 0.100000 0.840000
vt 0.400000 0.730000
vt 0.200000 0.840000
vt 0.300000 0.740000
vt 0.780000 0.160000
vt 0.730000 0.690000
vt 0.410000 0.690000
vt 0.650000 0.580000
vt 0.410000 0.500000
vt 0.730000 0.580000
vt 0.410000 0.580000
vt 0.900000 0.810000
vt 0.900000 0.490000
vt 0.980000 0.730000
vt 0.980000 0.650000
vt 0.900000 0.570000
vt 0.900000 0.730000
vt 0.760000 0.930000
vt 0.770000 0.930000
vt 0.760000 0.920000
vt 0.420000 0.760000
vt 0.940000 0.580000
vt 0.420000 0.510000
vt 0.940000 0.640000
vt 0.940000 0.410000
vt 0.420000 0.570000
vt 0.560000 0.850000
vt 0.520000 0.880000
vt 0.350000 0.870000
vt 0.410000 0.960000
vt 0.320000 0.530000
vt 0.480000 0.370000
vt 0.160000 0.530000
vt 0.640000 0.370000
vt 0.000000 0.370000
vt 0.320000 0.370000
vt 0.000000 0.640000
vt 0.400000 0.630000
vt 0.100000 0.540000
vt 0.300000 0.640000
vt 0.200000 0.540000
vt 0.810000 0.910000
vt 0.550000 0.090000
vt 0.750000 0.910000
vt 0.610000 0.090000
vt 0.940000 0.520000
vt 0.480000 0.510000
vt 0.940000 0.470000
vt 0.480000 0.570000
vt 0.810000 0.820000
vt 0.830000 0.500000
vt 0.700000 0.080000
vt 0.490000 0.770000
vt 0.570000 0.690000
vt 0.970000 0.380000
vt 0.650000 0.380000
vt 0.890000 0.460000
vt 0.730000 0.380000
vt 0.810000 0.460000
vt 0.810000 0.380000
vt 0.320000 0.170000
vt 0.650000 0.690000
vt 0.410000 0.770000
vt 0.490000 0.500000
vt 0.570000 0.580000
vt 1.000000 0.580000
vt 0.660000 0.310000
vt 1.000000 0.520000
vt 0.660000 0.370000
vt 0.710000 0.980000
vt 0.560000 0.940000
vt 0.780000 0.000000
vt 0.860000 0.080000
vt 0.540000 0.080000
vt 0.860000 0.820000
vt 0.890000 0.500000
vt 0.510000 0.890000
vt 0.480000 0.860000
vt 0.470000 0.960000
vt 0.350000 0.810000
vt 0.010000 0.870000
vt 0.150000 0.870000
vt 0.210000 0.810000
vt 0.760000 0.990000
vt 1.000000 0.640000
vt 1.000000 0.410000
vt 0.720000 0.310000
vt 0.700000 0.990000
vt 0.690000 0.990000
vt 0.700000 1.000000
vt 0.480000 0.700000
vt 1.000000 0.470000
vt 0.720000 0.370000
vt 0.490000 0.580000
vt 0.640000 0.170000
vt 0.160000 0.000000
vt 0.000000 0.170000
vt 0.160000 0.170000
vt 0.920000 0.910000
vt 0.690000 0.910000
vt 0.610000 0.150000
vt 0.920000 0.820000
vt 0.690000 0.820000
vt 0.890000 0.560000
vt 0.700000 0.160000
vt 0.270000 0.870000
vt 0.400000 0.890000
vt 0.700000 0.930000
vt 0.640000 0.940000
vt 0.750000 0.940000
vt 0.600000 0.780000
vt 0.710000 0.940000
vt 0.560000 0.780000
vt 0.520000 0.940000
vt 0.600000 0.940000
vt 0.750000 0.980000
vt 0.780000 0.080000
vt 0.510000 0.970000
vt 0.480000 1.000000
vt 0.480000 0.780000
vt 0.400000 1.000000
vt 0.370000 0.970000
vt 0.400000 0.780000
vt 0.700000 0.920000
vt 0.690000 0.930000
vt 0.480000 0.760000
vt 0.770000 0.990000
vt 0.760000 1.000000
vt 0.420000 0.700000
vt 0.490000 0.690000
vt 0.640000 0.880000
vt 0.600000 0.850000
vt 0.600000 0.880000
vt 0.560000 0.880000
vt 0.740000 0.730000
vt 0.820000 0.810000
vt 0.820000 0.490000
vt 0.750000 0.820000
vt 0.830000 0.560000
vt 0.740000 0.650000
vt 0.820000 0.570000
vt 0.650000 0.300000
vt 0.970000 0.300000
vt 0.890000 0.220000
vt 0.810000 0.220000
vt 0.730000 0.300000
vt 0.480000 0.890000
vt 0.480000 0.970000
vt 0.470000 0.900000
vt 0.350000 0.990000
vt 0.010000 0.930000
vt 0.410000 0.900000
vt 0.350000 0.930000
vt 0.400000 0.970000
vt 0.780000 0.240000
vt 0.860000 0.160000
vt 0.540000 0.160000
vt 0.860000 0.910000
vt 0.550000 0.150000
vt 0.700000 0.240000
vt 0.620000 0.160000
vt 0.700000 0.000000
vt 0.620000 0.080000
vt 0.100000 0.740000
vt 0.100000 0.640000
vt 0.200000 0.740000
vt 0.200000 0.640000
vt 0.160000 0.370000
vt 0.210000 0.990000
vt 0.150000 0.930000
vt 0.210000 0.930000
vt 0.210000 0.870000
vt 0.820000 0.730000
vt 0.900000 0.650000
vt 0.820000 0.650000
vt 0.890000 0.300000
vt 0.890000 0.380000
vt 0.810000 0.300000
vt 0.270000 0.810000
vt 0.090000 0.870000
vt 0.270000 0.930000
vt 0.270000 0.990000
vt 0.090000 0.930000
vt 0.370000 0.890000
vt 0.400000 0.860000
vt 0.350000 0.870000
vt 0.410000 0.960000
vt 0.510000 0.890000
vt 0.480000 0.860000
vt 0.470000 0.960000
vt 0.350000 0.810000
vt 0.010000 0.870000
vt 0.150000 0.870000
vt 0.210000 0.810000
vt 0.270000 0.870000
vt 0.400000 0.890000
vt 0.510000 0.970000
vt 0.480000 1.000000
vt 0.480000 0.780000
vt 0.400000 1.000000
vt 0.370000 0.970000
vt 0.400000 0.780000
vt 0.480000 0.890000
vt 0.480000 0.970000
vt 0.470000 0.900000
vt 0.350000 0.990000
vt 0.010000 0.930000
vt 0.410000 0.900000
vt 0.350000 0.930000
vt 0.400000 0.970000
vt 0.210000 0.990000
vt 0.150000 0.930000
vt 0.210000 0.930000
vt 0.210000 0.870000
vt 0.270000 0.810000
vt 0.090000 0.870000
vt 0.270000 0.930000
vt 0.270000 0.990000
vt 0.090000 0.930000
s 0
usemtl RobotMat
f 85/170/1 84/169/1 3/5/1 21/42/1
f 56/112/2 2/4/2 41/83/2 75/152/2
f 90/176/2 99/186/2 100/187/2 89/174/2
f 45/92/3 36/72/3 30/61/3 73/147/3 74/151/3
f 82/165/2 54/110/2 5/10/2 80/160/2
f 77/154/4 78/157/4 75/152/4 76/153/4 79/159/4 17/35/4 42/84/4
f 57/113/3 58/115/3 59/117/3 38/75/3 60/121/3 12/23/3 44/89/3 46/93/3
f 53/107/2 52/104/2 81/163/2 40/80/2
f 65/132/2 44/89/2 12/23/2 13/24/2
f 89/175/4 43/87/4 91/177/4 90/176/4
f 76/153/1 75/152/1 41/82/1 62/123/1
f 33/66/4 20/41/4 88/173/4 51/103/4
f 4/9/5 86/171/5 87/172/5 22/45/5
f 63/126/6 79/159/6 76/153/6 62/124/6
f 60/120/6 68/138/6 67/136/6 58/114/6
f 23/47/6 24/49/6 71/143/6 27/55/6
f 70/140/6 72/145/6 94/180/6 92/178/6
f 61/122/6 28/57/6 83/167/6 39/77/6
f 11/22/4 92/178/4 94/180/4 93/179/4
f 25/51/6 26/53/6 48/97/6 37/73/6
f 18/36/6 19/38/6 88/173/6 20/41/6
f 33/66/1 1/1/1 18/37/1 20/41/1
f 7/13/1 34/67/1 29/59/1 35/70/1
f 27/55/1 40/80/1 81/163/1 23/47/1
f 95/181/1 73/148/1 30/60/1 96/182/1
f 64/129/1 13/25/1 12/23/1 57/113/1
f 28/57/3 61/122/3 5/10/3 54/110/3
f 45/90/2 15/29/2 14/27/2 36/71/2
f 39/78/1 80/161/1 5/10/1 61/122/1
f 69/139/1 68/138/1 60/120/1 38/76/1
f 46/93/6 47/94/6 64/130/6 57/113/6
f 97/183/2 74/150/2 73/149/2 95/181/2
f 36/71/1 14/27/1 25/51/1 37/73/1
f 74/151/5 97/183/5 32/65/5 31/63/5
f 15/30/5 45/91/5 48/97/5 26/53/5
f 10/21/5 93/179/5 94/180/5 72/146/5
f 52/105/5 53/108/5 71/143/5 24/49/5
f 15/31/4 26/54/4 49/99/4 8/16/4
f 65/133/5 47/95/5 46/93/5 44/89/5
f 42/85/6 17/34/6 55/111/6 98/184/6
f 78/158/5 99/186/5 55/111/5 17/34/5
f 92/178/1 11/22/1 9/17/1 70/141/1
f 60/121/3 58/115/3 57/113/3 12/23/3
f 8/15/2 6/11/2 34/67/2 7/13/2
f 69/139/3 16/32/3 67/137/3 68/138/3
f 67/137/5 16/32/5 59/118/5 58/116/5
f 86/171/2 4/8/2 3/6/2 84/169/2
f 22/45/3 21/43/3 3/7/3 4/9/3
f 52/106/4 24/50/4 23/48/4 39/79/4 83/168/4 82/166/4 80/162/4 81/164/4
f 6/12/3 65/134/3 13/26/3 64/131/3 29/58/3 34/68/3
f 19/39/3 18/37/3 1/1/3 50/100/3
f 53/109/3 40/81/3 70/142/3 9/18/3 10/21/3 71/144/3
f 39/79/4 23/48/4 81/164/4 80/162/4
f 69/139/2 38/76/2 59/119/2 16/33/2
f 51/103/2 50/101/2 1/2/2 33/66/2
f 93/179/2 10/20/2 9/19/2 11/22/2
f 31/63/3 30/61/3 36/72/3 37/74/3 48/98/3 45/92/3 74/151/3
f 71/144/3 10/21/3 72/146/3 70/142/3 40/81/3 27/56/3
f 75/152/4 78/157/4 17/35/4 79/159/4 56/112/4
f 7/14/4 35/69/4 49/99/4 26/54/4 25/52/4 14/28/4 15/31/4 8/16/4
f 54/110/5 82/166/5 83/168/5 28/57/5
f 6/12/3 66/135/3 29/58/3 64/131/3 47/96/3 65/134/3
f 51/103/5 88/173/5 19/40/5 50/102/5
f 84/169/4 85/170/4 87/172/4 86/171/4
f 21/44/6 22/46/6 87/172/6 85/170/6
f 43/87/1 89/175/1 100/188/1 98/185/1
f 6/12/5 8/16/5 49/99/5 66/135/5
f 2/3/5 56/112/5 79/159/5 63/127/5
f 95/181/4 96/182/4 32/65/4 97/183/4
f 30/62/6 31/64/6 32/65/6 96/182/6
f 29/59/6 66/135/6 49/99/6 35/70/6
f 63/128/3 62/125/3 41/83/3 2/4/3
f 55/111/5 99/186/5 90/176/5 91/177/5
f 100/187/2 99/186/2 78/158/2 77/155/2
f 98/184/6 55/111/6 91/177/6 43/88/6
f 98/185/1 100/188/1 77/156/1 42/86/1
f 107/201/2 101/190/2 103/194/2 110/208/2
f 116/218/2 119/222/2 120/223/2 115/216/2
f 112/210/4 113/213/4 110/208/4 111/209/4 114/215/4 102/192/4 104/195/4
f 115/217/4 105/198/4 117/219/4 116/218/4
f 111/209/1 110/208/1 103/193/1 108/202/1
f 109/205/6 114/215/6 111/209/6 108/203/6
f 104/196/6 102/191/6 106/200/6 118/220/6
f 113/214/5 119/222/5 106/200/5 102/191/5
f 110/208/4 113/213/4 102/192/4 114/215/4 107/201/4
f 105/198/1 115/217/1 120/224/1 118/221/1
f 101/189/5 107/201/5 114/215/5 109/206/5
f 109/207/3 108/204/3 103/194/3 101/190/3
f 106/200/5 119/222/5 116/218/5 117/219/5
f 120/223/2 119/222/2 113/214/2 112/211/2
f 118/220/6 106/200/6 117/219/6 105/199/6
f 118/221/1 120/224/1 112/212/1 104/197/1
